<svg width="600" height="400" xmlns="http://www.w3.org/2000/svg">
  <style>
    .text { font: bold 20px sans-serif; fill: #4361ee; }
    .small-text { font: 14px sans-serif; fill: #333; }
  </style>
  
  <!-- Background -->
  <rect width="100%" height="100%" fill="#f8f9fa"/>
  
  <!-- Web Development Illustration -->
  <g transform="translate(300, 200)">
    <!-- Computer Screen -->
    <rect x="-150" y="-120" width="300" height="200" rx="10" fill="#fff" stroke="#4361ee" stroke-width="5"/>
    <rect x="-140" y="-110" width="280" height="160" rx="5" fill="#f0f0f0"/>
    
    <!-- Code Elements -->
    <rect x="-120" y="-90" width="80" height="10" rx="2" fill="#4361ee" opacity="0.7"/>
    <rect x="-120" y="-70" width="120" height="10" rx="2" fill="#4361ee" opacity="0.5"/>
    <rect x="-120" y="-50" width="100" height="10" rx="2" fill="#4361ee" opacity="0.7"/>
    <rect x="-120" y="-30" width="140" height="10" rx="2" fill="#4361ee" opacity="0.5"/>
    
    <rect x="20" y="-90" width="100" height="70" rx="5" fill="#3a0ca3" opacity="0.2"/>
    
    <!-- Computer Stand -->
    <rect x="-30" y="80" width="60" height="15" rx="2" fill="#333"/>
    <rect x="-50" y="95" width="100" height="5" rx="2" fill="#333"/>
    
    <!-- Decorative Elements -->
    <circle cx="-80" cy="30" r="20" fill="#4cc9f0" opacity="0.5"/>
    <circle cx="80" cy="-40" r="25" fill="#4cc9f0" opacity="0.3"/>
    <circle cx="60" cy="50" r="15" fill="#3a0ca3" opacity="0.4"/>
  </g>
  
  <!-- Text -->
  <text x="300" y="350" text-anchor="middle" class="text">Webilito Web Development</text>
  <text x="300" y="375" text-anchor="middle" class="small-text">Professional Web Solutions</text>
</svg> 